<?xml version="1.0" encoding="UTF-8" standalone="no"?>
<!DOCTYPE svg PUBLIC "-//W3C//DTD SVG 1.1//EN" "http://www.w3.org/Graphics/SVG/1.1/DTD/svg11.dtd">
<svg width="100%" height="100%" viewBox="0 0 606 593" version="1.1" xmlns="http://www.w3.org/2000/svg" xmlns:xlink="http://www.w3.org/1999/xlink" xml:space="preserve" xmlns:serif="http://www.serif.com/" style="fill-rule:evenodd;clip-rule:evenodd;stroke-miterlimit:10;">
    <g transform="matrix(1,0,0,1,5.02494,-127.865)">
        <g id="Layer-1" serif:id="Layer 1">
            <g transform="matrix(1,0,0,1,0,5.89)">
                <rect x="0" y="127" width="595.281" height="582"/>
            </g>
            <g transform="matrix(1,0,0,1,0,5.89)">
                <rect x="0" y="127" width="595.28" height="582" style="fill:none;stroke:black;stroke-width:1px;"/>
            </g>
            <g transform="matrix(1,0,0,1,0,-110.612)">
                <rect x="80.333" y="272.67" width="435" height="407.162" style="fill:white;stroke:black;stroke-width:1px;"/>
            </g>
            <g transform="matrix(1,0,0,1,97.25,549.89)">
                <path d="M0,-372.5L195,-372.5C195,-372.5 184.125,-364.625 181.75,-354.625C179.375,-344.625 179.875,-337.5 181.625,-332.75C181.625,-332.75 181.625,-330.375 180.25,-328.625C178.875,-326.875 179,-332.25 172.625,-331.875C166.25,-331.5 157.375,-333.5 145.5,-312.125C145.5,-312.125 141.625,-302.25 141,-293.75C140.375,-285.25 139.625,-273.625 140.75,-270.625C141.875,-267.625 128.625,-268.375 128.625,-268.375C128.625,-268.375 125.25,-267.5 125.125,-266.125C125,-264.75 125.125,-257.5 125.25,-253.375C125.375,-249.25 124.375,-246.875 124,-243C123.625,-239.125 121.125,-235.625 121.5,-231.25C121.875,-226.875 128.75,-226.625 132.75,-226.25C136.75,-225.875 136.375,-225 134.125,-224.375C131.875,-223.75 125.25,-223.625 125.5,-215.625C125.75,-207.625 128.25,-188.625 128.875,-183.5C129.5,-178.375 125,-183 125.5,-181.5C126,-180 123.75,-182.375 122.375,-176.625C121,-170.875 122.75,-171.875 123.375,-171.125C124,-170.375 124.75,-170.375 124.75,-170.375L122.875,-167.75L122.25,-164.75L123.25,-162.625L124.25,-161.75C124.25,-161.75 121.75,-159 124.375,-156C127,-153 125.75,-154.375 125.5,-151.5C125.25,-148.625 120,-127.25 121.375,-117.875C122.75,-108.5 118.125,-105.625 116.125,-101.5C114.125,-97.375 102.5,-79.25 103,-75C103.5,-70.75 101.875,-66.25 100.625,-63.875C99.375,-61.5 93.875,-55.875 94.125,-50C94.375,-44.125 94.75,-43.25 97.5,-40.75C97.5,-40.75 95.125,-32.625 94.25,-29.25C93.375,-25.875 90,-12.625 89.375,-10.25C88.75,-7.875 87.625,-3.375 88,-1L87.625,0L0,0L0,-372.5Z" style="fill:rgb(29,44,73);fill-rule:nonzero;stroke:rgb(29,44,73);stroke-width:1px;"/>
            </g>
            <g transform="matrix(1,0,0,1,215.125,396.765)">
                <path d="M0,153.125L104.375,153.125C104.375,153.125 105.25,140.75 108.125,135.125C111,129.5 110.375,122.625 110.125,118.125C109.875,113.625 110.5,105.75 106.875,103.75L106.25,98.25C106.25,98.25 102.625,90 103.625,87.875C103.375,85.5 102.625,65.375 102.625,65.375C102.625,65.375 103.75,61.625 105.875,60.125C106.5,58.25 107,47.375 104.75,45.125C102.75,42.875 101.25,43 96.75,42.5C92.25,42 94.75,47.125 79.25,23.125C76.625,18.625 73.875,14.375 72.625,12.75C71.375,11.125 69.5,11.125 66.625,10.875C63.75,10.625 63.375,10.5 60.875,5.875L58.375,1.25C58.375,1.25 57.735,0 55.18,7.875C52.625,15.75 50,7.875 45,27.5C41.875,34.125 41.625,34.875 41.125,43.75C39.875,48.25 37.25,49.375 34.5,51.125C31.75,52.875 31.375,57.75 30.375,59C29.375,60.25 25.375,60.25 23.25,67.75C21.125,75.25 20.75,70.875 22.875,77.875C22.875,77.875 19.75,89.875 17.875,92.625C16,95.375 13,103 12.125,106.5C11.25,110 7.375,115 4.5,115.5C1.625,116 -1.625,126.5 -2,129.375C-2.375,132.25 -3.5,147.625 -2,149.875C-1.125,152.125 0,153.125 0,153.125Z" style="fill:rgb(29,44,73);fill-rule:nonzero;stroke:rgb(29,44,73);stroke-width:1px;"/>
            </g>
            <g transform="matrix(1,0,0,1,320,549.89)">
                <path d="M0,-372.5L178.833,-372.5L178.833,0L60.688,0C60.688,0 59.688,-0.75 58.813,-3.125C57.938,-5.5 47.5,-9.625 44.375,-10.438C41.25,-11.25 35.063,-21.438 32.938,-23.625C31.562,-25.625 31.437,-27.188 31.437,-27.188L30.25,-47.438C30.25,-47.438 30.062,-48.938 31,-50C31.937,-51.063 33.625,-53.75 33.438,-55.938C33.25,-58.125 32.438,-67 31.937,-68.125C31.437,-69.25 31.625,-71.125 31.562,-72.125C31.5,-73.125 32.75,-76.063 33.063,-77.125C33.375,-78.188 36.25,-100.313 36,-101.75C35.75,-103.188 35.875,-114.5 34,-115.688C32.125,-116.875 33.625,-122.125 33,-123C32.375,-123.875 30.125,-122.688 29.312,-125.625C28.5,-128.563 19.937,-148.688 19.937,-148.688L14.25,-160.438C14.25,-160.438 -1.125,-182.5 -2.938,-184.188C-4.75,-185.875 -5.187,-196.438 -3.563,-199.125C-1.937,-201.813 -1.125,-198.688 -0.937,-198.688C-0.75,-198.688 3.438,-196 5.25,-197.875C7.062,-199.75 11.813,-207.125 11.875,-209.938C11.938,-212.75 13.25,-240.625 12.375,-241.938C12.063,-243.25 11.313,-247.937 6.312,-249.687C1.312,-251.437 6.437,-253.312 6.312,-255.937C6.187,-258.562 5.437,-260.437 7.25,-259.187C9.063,-257.937 29.562,-246.562 32.25,-246.187C34.938,-245.812 35.438,-245.75 37.313,-245.75C39.188,-245.75 41.375,-243.438 42.188,-243.75C43.063,-243.75 46.188,-243.625 52.938,-249.25C59.688,-254.875 60.813,-254.25 62.438,-260C64.063,-265.75 63.563,-273.937 67.125,-274.812C70.688,-275.687 73.75,-272.5 70.063,-284.25C68.313,-295.562 68.75,-296.062 70.375,-296.187C71.813,-296.937 71.375,-296.75 74.625,-300.375C77.875,-304 77.938,-304.187 78.125,-304.562C78.313,-304.937 78.313,-306.187 78.313,-306.187C78.313,-306.187 79.313,-306.812 79.625,-307.062C79.938,-307.312 81.5,-307.812 81.813,-307.812C82.125,-307.812 81.313,-308.687 82.813,-308.75C88.438,-308.75 116.5,-308.562 116.5,-308.562L116.5,-311.75C116.5,-311.75 116.563,-312.812 117.25,-312.75C117.938,-312.687 118.5,-312.625 118.75,-312.312C119,-312 125.75,-312.125 125.75,-312.125C125.75,-312.125 126.938,-313.187 129.062,-313.187C131.187,-313.187 149.937,-313.125 149.937,-313.125C149.937,-313.125 150.375,-311.375 151.312,-311.375C152.25,-311.375 153.812,-311.125 153.75,-312.125C156.875,-312.125 165,-312.187 165,-312.187C165,-312.187 165.437,-312.187 165.375,-314.875C165.437,-317.187 165.5,-316.812 157.562,-316.812C154.687,-316.812 154.125,-316.875 154.125,-316.875C154.125,-316.875 154.562,-317.875 152.75,-317.875C150.937,-317.875 150.062,-316.937 150.062,-316.375C150.062,-315.812 149.25,-315.875 149.25,-315.875L128,-316.062C128,-316.062 126.938,-316.187 127.313,-319.312C127.688,-322.437 126.438,-323.687 125.438,-323C124.438,-322.312 123.688,-322 123.563,-321.812C123.438,-321.625 122.438,-322.812 122.313,-323.875C122.188,-324.937 122.125,-335.062 122.125,-335.25C122.125,-335.437 121.563,-336.937 120.875,-336.5C120.188,-336.062 119,-336.687 118.813,-335.937C118.625,-335.187 118.75,-321.312 118.75,-321.312C118.75,-321.312 117.625,-320.437 117,-321.437C116.375,-322.437 115.75,-321.875 115.875,-323.062C116,-324.25 115.125,-325.125 115.125,-325.125L34.375,-325.125C34.375,-325.125 34.125,-329 33.5,-328.75C32.875,-328.5 28.625,-328.375 28.625,-328.375L28.5,-334.75C28.5,-334.75 28.125,-336.625 26.75,-335.5C25.5,-335.375 25.625,-329.875 25.5,-329.25C25.375,-328.625 24.375,-328.625 24.375,-328.625L24.375,-326.375L19.875,-325.875C19.875,-325.875 13.75,-324.75 12.875,-324.125C12,-323.5 8.75,-323.25 8.75,-323.25L7.25,-323C7.25,-323 6.25,-325.75 6.25,-326.125C6.25,-326.5 6.125,-329.125 6.125,-329.125C6.125,-329.125 6.375,-328.125 5.875,-329.875C5.375,-331.625 5.625,-333.125 5.625,-333.125C5.625,-333.125 13.5,-336 14.875,-338.5C16.25,-341 16.25,-350.5 15,-354.375C13.75,-358.25 13,-359.375 13,-360.375C13,-361.375 12.625,-364.625 12.625,-364.625C12.625,-364.625 7.75,-367.125 5.375,-367.875C3,-368.625 -0.5,-371.25 -0.5,-371.25L0,-372.5Z" style="fill:rgb(255,165,0);fill-rule:nonzero;stroke:rgb(255,165,0);stroke-width:1px;"/>
            </g>
            <g transform="matrix(1,0,0,1,169.5,616.265)">
                <path d="M0,44.375L-66.75,44.375L-66.75,-1.125L0,-1.125C0,-1.125 -0.5,-14.25 -13.125,-18.125C-15.75,-18.75 -20.875,-18.75 -24.125,-18.75L-71.75,-18.75C-71.75,-18.75 -88.25,-17.375 -88.5,-0.625C-88.75,16.125 -88.5,44.375 -88.5,44.375C-88.5,44.375 -90.375,63.125 -62.125,63.125L-18.625,63.125C-18.625,63.125 -5.875,62.625 -0.625,50.25C0.375,46.875 0,44.375 0,44.375Z" style="fill:white;fill-rule:nonzero;stroke:black;stroke-width:1px;"/>
            </g>
            <g transform="matrix(1,0,0,1,203,597.473)">
                <path d="M0,81.917L54.833,81.917C54.833,81.917 73.333,80.585 73.5,63.418C74.125,41.792 73.375,30.917 45.333,31.918C12.875,31.917 7.167,31.917 7.167,31.917L2.5,31.917L2.5,17.084L72.167,17.084C72.167,17.084 71.167,0 53,0.042C34.833,0.084 0,0.042 0,0.042C0,0.042 -17.833,0.584 -17.833,17.084L-17.833,33.584C-17.833,33.584 -19.667,49.752 6.833,49.918C33.333,50.084 53.667,49.751 53.667,49.751L53.667,64.084L-17.86,63.751C-17.86,63.751 -16.5,74.418 -9.5,78.251C-6.833,79.918 -1.5,81.917 -1.5,81.917" style="fill:white;fill-rule:nonzero;stroke:black;stroke-width:1px;"/>
            </g>
            <g transform="matrix(1,0,0,1,0,405.64)">
                <rect x="290.875" y="211.375" width="13.125" height="13.5" style="fill:white;stroke:black;stroke-width:1px;"/>
            </g>
            <g transform="matrix(1,0,0,1,0,462.39)">
                <rect x="290.875" y="182.625" width="13.125" height="14.25" style="fill:white;stroke:black;stroke-width:1px;"/>
            </g>
            <g transform="matrix(1,0,0,1,409,662.89)">
                <path d="M0,-49L-73.875,-49L-73.875,0.25L-17.625,0.25L-17.75,-17.125L-45.375,-17.25C-45.375,-17.25 -54.25,-18.75 -57.75,-25.25C-60.125,-31.25 -61.875,-31.125 -56.75,-31.125C-51.625,-31.125 0,-30.75 0,-30.75L0,-0.625C0,-0.625 0.375,16.375 -18.375,16.5C-37.125,16.625 -70.75,16.5 -70.75,16.5L-76.5,16.556C-76.5,16.556 -88.5,14.5 -91.375,2.875L-91.375,-49C-91.375,-49 -90.375,-65.125 -74.125,-65.375C-57.875,-65.625 -15.875,-65.375 -15.875,-65.375C-15.875,-65.375 -7.875,-63.75 -4.375,-59.5C-1.875,-55 0.002,-52.75 0.001,-51.375C0,-50 0,-49 0,-49Z" style="fill:white;fill-rule:nonzero;stroke:black;stroke-width:1px;"/>
            </g>
            <g transform="matrix(1,0,0,1,445.334,680.874)">
                <path d="M0,-83.47L48.5,-83.47C48.5,-83.47 68.166,-84.485 68.333,-64.651C68.5,-44.817 68.333,-23.484 68.333,-23.484C68.333,-23.484 71.166,-1.372 43.833,-1.428C16.5,-1.484 4,-1.428 4,-1.428C4,-1.428 -20.499,1.015 -20.333,-21.651C-20.167,-44.317 -20.334,-66.151 -20.334,-66.151C-20.334,-66.151 -18.834,-74.65 -15.167,-77.817C-11.5,-80.984 -8.5,-82.485 -7,-82.651C-5.138,-83.295 -3.667,-83.479 -3.667,-83.479L0,-83.47Z" style="fill:white;fill-rule:nonzero;stroke:black;stroke-width:1px;"/>
            </g>
            <g transform="matrix(1,0,0,1,0,434.224)">
                <rect x="443.001" y="178.333" width="53.666" height="51" style="stroke:black;stroke-width:1px;"/>
            </g>
        </g>
    </g>
</svg>
